<?xml version="1.0" encoding="utf-8"?>
<!-- Generator: Adobe Illustrator 22.0.0, SVG Export Plug-In . SVG Version: 6.00 Build 0)  -->
<svg version="1.1" id="Layer_1" xmlns="http://www.w3.org/2000/svg" xmlns:xlink="http://www.w3.org/1999/xlink" x="0px" y="0px"
	 viewBox="0 0 431.8 621.7" style="enable-background:new 0 0 431.8 621.7;" xml:space="preserve">
<style type="text/css">
	.st0{fill:#A1CD53;}
	.st1{fill:#8A4A9C;}
	.st2{fill:#5FBA49;}
	.st3{fill:#603292;}
</style>
<g>
	<path class="st0" d="M26.6,208.7c0.9-1,1.7-2.1,2.6-3C89.5,145.3,149.8,85,210.1,24.7c20.1-20.1,50.1-16.4,64.7,7.6
		c8.8,14.5,7.4,34-4.3,46.4c-13.5,14.3-27.6,28-41.5,41.9c-32.7,32.7-65.5,65.4-98.2,98.1c-6.6,6.6-13.2,13.1-19.9,19.7
		c-4.6,4.6-4.6,4.6-0.2,9c52.3,52.3,104.6,104.6,157,156.9c7,7,11.2,14.9,12.3,24.9c2.4,20.9-13.2,41.4-34.1,44.6
		c-13.9,2.1-25.5-1.9-35.4-11.8C150.6,401.9,90.5,341.8,30.4,281.8c-1.3-1.3-2.4-2.7-3.6-4.1c2.1-1.4,3.9,0.1,5.6,1
		c13.1,6.7,33.1,4.7,44.2-7.7c7.6-8.6,16.1-16.4,24.3-24.4c2.7-2.6,3.1-4.6,0.2-7.4c-8.4-8.1-16.4-16.6-24.8-24.7
		c-11.8-11.3-30-13.9-44.6-6.6C30,208.6,28.5,210.2,26.6,208.7z"/>
	<path class="st1" d="M342.8,419.7c-44.4-44.4-89-88.8-133.3-133.3c-13-13.1-12.8-33.3,0-46.3c13.2-13.3,33.6-14.3,46.6-1.3
		c50.8,50.5,101.4,101.3,152.1,151.9c0.2,0.2,0.3,0.6,0.5,0.8c-2,1.2-3.5-0.3-5.1-0.9c-14.3-5.5-26.9-3.7-37.6,7.9
		c-5.7,6.2-11.9,12-17.9,18C346.6,418.1,345.4,420.3,342.8,419.7z"/>
	<path class="st1" d="M407.9,448.8c-0.9,1-1.6,2.1-2.6,3c-49.3,49.3-98.5,98.5-147.8,147.7c-17,16.9-43.1,12.7-54.1-8.5
		c-6.5-12.4-4.2-27.3,6.1-37.7c26.8-26.9,53.7-53.8,80.6-80.6c15.9-15.9,31.8-31.8,47.7-47.7c1.5-1.5,3.2-2.9,4.8-4.3
		c2.5-0.7,3.6,1.3,5,2.6c5.8,5.7,11.5,11.5,17.3,17.2c11.2,11.1,23.8,15.3,38.9,8.5C405.1,448.3,406.5,447.5,407.9,448.8z"/>
	<path class="st2" d="M26.6,208.7c7.7-3.7,15.4-6.3,24.2-6.1c10.2,0.3,18.8,3.8,26,10.7c9,8.6,17.6,17.7,26.6,26.3
		c2.6,2.5,2.3,4-0.1,6.3c-9.3,9-18.4,18.3-27.6,27.5c-10.5,10.4-28.5,13.5-42,7.2c-2.2-1-4.5-2-6.8-3c-8.3-6.7-15.1-14.6-17.5-25.3
		c-3-13.4,0.1-25.4,9.1-35.7C20.8,213.7,23.8,211.3,26.6,208.7z"/>
	<path class="st3" d="M407.9,448.8c-3.6,1.3-7.1,2.9-10.7,3.8c-12.4,3-22.8-1.3-31.7-9.7c-7.7-7.3-14.6-15.4-22.9-22.2
		c0-0.3,0.1-0.6,0.2-0.9c8-7.8,16.3-15.3,23.8-23.5c10.2-11.1,27.2-12.2,39.9-5.4c0.7,0.4,1.5,0.6,2.3,0.9
		C428.4,406.6,429.2,432.9,407.9,448.8z"/>
</g>
</svg>
