<?xml version="1.0" encoding="utf-8"?>
<!-- Generator: Adobe Illustrator 22.0.0, SVG Export Plug-In . SVG Version: 6.00 Build 0)  -->
<svg version="1.1" id="Layer_1" xmlns="http://www.w3.org/2000/svg" xmlns:xlink="http://www.w3.org/1999/xlink" x="0px" y="0px"
	 viewBox="0 0 930.7 620.2" style="enable-background:new 0 0 930.7 620.2;" xml:space="preserve">
<style type="text/css">
	.st0{fill:#A1CD53;}
	.st1{fill:#8A4A9C;}
	.st2{fill:#FFFFFF;}
	.st3{fill:#5FBA49;}
	.st4{fill:#603292;}
</style>
<g>
	<path class="st0" d="M34.9,207.9c0.9-1,1.7-2.1,2.6-3C97.8,144.6,158.1,84.3,218.5,24c20.1-20.1,50.1-16.4,64.7,7.6
		c8.8,14.5,7.4,34-4.3,46.4c-13.5,14.3-27.6,28-41.5,41.9c-32.7,32.7-65.5,65.4-98.2,98.1c-6.6,6.6-13.2,13.1-19.9,19.7
		c-4.6,4.6-4.6,4.6-0.2,9c52.3,52.3,104.6,104.6,157,156.9c7,7,11.2,14.9,12.3,24.9c2.4,20.9-13.2,41.4-34.1,44.6
		c-13.9,2.1-25.5-1.9-35.4-11.8C158.9,401.1,98.8,341.1,38.7,281c-1.3-1.3-2.4-2.7-3.6-4.1c2.1-1.4,3.9,0.1,5.6,1
		c13.1,6.7,33.1,4.7,44.2-7.7c7.6-8.6,16.1-16.4,24.3-24.4c2.7-2.6,3.1-4.6,0.2-7.4c-8.4-8.1-16.4-16.6-24.8-24.7
		c-11.8-11.3-30-13.9-44.6-6.6C38.3,207.8,36.9,209.5,34.9,207.9z"/>
	<path class="st1" d="M351.1,419c-44.4-44.4-89-88.8-133.3-133.3c-13-13.1-12.8-33.3,0-46.3c13.2-13.3,33.6-14.3,46.6-1.3
		c50.8,50.5,101.4,101.3,152.1,151.9c0.2,0.2,0.3,0.6,0.5,0.8c-2,1.2-3.5-0.3-5.1-0.9c-14.3-5.5-26.9-3.7-37.6,7.9
		c-5.7,6.2-11.9,12-17.9,18C354.9,417.4,353.8,419.6,351.1,419z"/>
	<path class="st1" d="M416.2,448c-0.9,1-1.6,2.1-2.6,3c-49.3,49.3-98.5,98.5-147.8,147.7c-17,16.9-43.1,12.7-54.1-8.5
		c-6.5-12.4-4.2-27.3,6.1-37.7c26.8-26.9,53.7-53.8,80.6-80.6c15.9-15.9,31.8-31.8,47.7-47.7c1.5-1.5,3.2-2.9,4.8-4.3
		c2.5-0.7,3.6,1.3,5,2.6c5.8,5.7,11.5,11.5,17.3,17.2c11.2,11.1,23.8,15.3,38.9,8.5C413.4,447.6,414.8,446.8,416.2,448z"/>
	<path class="st2" d="M705,149.5c0,22-0.1,42.7,0.1,63.3c0,4.2-1.1,5.3-5.2,5.1c-8.5-0.3-17-0.2-25.5,0c-3.1,0.1-4.3-0.6-4.2-4
		c0.1-39.3,0.1-78.6,0-117.9c0-3.3,0.9-4.1,4.1-4.1c8.2,0.2,16.3,0.2,24.5,0c3.2-0.1,5.1,0.9,7.1,3.4c15,19.5,30.2,38.9,45.4,58.3
		c0.9,1.1,1.4,2.6,3.1,3.1c1-1.6,0.5-3.2,0.5-4.8c0-18.5,0.1-37,0-55.5c0-3.3,0.5-4.6,4.2-4.5c9,0.3,18,0.2,27,0
		c2.5,0,3.4,0.5,3.4,3.3c-0.1,39.8-0.1,79.6,0,119.4c0,2.7-0.9,3.3-3.4,3.3c-8.2-0.1-16.3-0.2-24.5,0c-2.6,0.1-3.8-1.2-5.2-3
		c-15.9-20.5-31.9-40.9-47.9-61.4C707.5,152.5,706.6,151.6,705,149.5z"/>
	<path class="st2" d="M885,144.4c8.5,0,17,0.1,25.5-0.1c2.7,0,3.8,0.6,3.7,3.5c-0.1,16.7-0.1,33.3,0,50c0,2.2-0.7,3.7-2.4,5.1
		c-24.3,19.8-62.8,23.5-89.7,7.8c-21.4-12.5-31.4-31.8-31.1-56.4c0.4-35.5,26.8-62.6,62.4-64.5c19.5-1.1,37.3,3.1,52.9,15.3
		c2.6,2,3.4,3.2,0.8,6.1c-5.3,5.8-10.2,11.9-15,18c-2.1,2.7-3.3,3.4-6.5,0.9c-10.3-8-22.1-11.6-35.1-8.1
		c-9.8,2.6-16.4,9.1-20.6,18.2c-6.1,13.1-3.3,30.8,6.6,40.4c10.4,10.1,28.4,12.8,41.4,6.3c2.4-1.2,3.2-2.7,3.2-5.5
		c0-11.5,0.1-11.4-11.1-11.5c-4.5,0-10.3,1.9-13-0.8c-2.7-2.7-0.7-8.5-0.8-13c-0.1-11.8,0-11.8,11.8-11.8
		C873.7,144.4,879.4,144.4,885,144.4z"/>
	<path class="st2" d="M319.2,220.3c-30.8,1-57.1-20.7-63.4-50.6c-7.2-34.4,10.8-66.8,44.3-76.9c25.6-7.8,53.7-2.5,71.6,19.7
		c2.1,2.7,2.3,3.9-0.6,6c-7,5.1-13.8,10.4-20.5,15.8c-2.2,1.8-3.2,1.6-5-0.6c-8.6-10-19.4-14.4-32.5-11.1c-14,3.5-23,16.9-22.4,33.7
		c0.4,12.6,5.3,22.9,16.9,29.1c11.2,6,25.4,3.4,35.4-6.1c6.2-5.8,6.2-5.8,13.2-0.9c5.4,3.8,10.7,7.9,16.3,11.6
		c2.4,1.6,2.5,2.5,0.7,4.8C359.5,212.2,341.8,220.6,319.2,220.3z"/>
	<path class="st3" d="M34.9,207.9c7.7-3.7,15.4-6.3,24.2-6.1c10.2,0.3,18.8,3.8,26,10.7c9,8.6,17.6,17.7,26.6,26.3
		c2.6,2.5,2.3,4-0.1,6.3c-9.3,9-18.4,18.3-27.6,27.5c-10.5,10.4-28.5,13.5-42,7.2c-2.2-1-4.5-2-6.8-3c-8.3-6.7-15.1-14.6-17.5-25.3
		c-3-13.4,0.1-25.4,9.1-35.7C29.1,213,32.1,210.6,34.9,207.9z"/>
	<path class="st2" d="M628.4,154.5c0-19.5,0.1-39-0.1-58.4c0-3.2,0.7-4.3,4.1-4.2c9.3,0.2,18.6,0.2,28,0c2.9-0.1,3.6,0.9,3.6,3.7
		c-0.1,39.5-0.1,78.9,0,118.4c0,3.6-1.3,4-4.4,4c-9-0.2-18-0.2-27,0c-3.6,0.1-4.4-1.1-4.3-4.5C628.4,193.8,628.4,174.2,628.4,154.5z
		"/>
	<path class="st4" d="M416.2,448c-3.6,1.3-7.1,2.9-10.7,3.8c-12.4,3-22.8-1.3-31.7-9.7c-7.7-7.3-14.6-15.4-22.9-22.2
		c0-0.3,0.1-0.6,0.2-0.9c8-7.8,16.3-15.3,23.8-23.5c10.2-11.1,27.2-12.2,39.9-5.4c0.7,0.4,1.5,0.6,2.3,0.9
		C436.7,405.9,437.6,432.1,416.2,448z"/>
	<path class="st2" d="M748.1,293.5c0-15.5,0.1-31-0.1-46.5c0-3.5,0.6-4.8,4.5-4.8c21.3,0.2,42.6,0.1,64,0.1c2.6,0,4.7-0.3,4.7,3.7
		c0,3.9-2.3,3.3-4.5,3.3c-18.7,0-37.3,0.1-56-0.1c-3.7,0-4.8,0.8-4.7,4.6c0.3,10.3,0.2,20.7,0,31c-0.1,3.4,0.7,4.5,4.3,4.4
		c16.5-0.2,33-0.1,49.5-0.1c2.7,0,4.6-0.2,4.6,3.7c0.1,4.3-2.4,3.5-4.8,3.5c-16.5,0-33,0.1-49.5-0.1c-3.2,0-4.3,0.7-4.2,4.1
		c0.2,11,0.2,22,0,33c-0.1,3.3,1.1,3.8,4,3.7c19-0.1,38,0,57-0.1c2.5,0,4.6-0.5,4.7,3.6c0,4.2-2.3,3.5-4.7,3.5
		c-21.3,0-42.6-0.1-64,0.1c-3.7,0-5-0.6-5-4.8C748.3,324.1,748.1,308.8,748.1,293.5z"/>
	<path class="st2" d="M469.1,293.5c0-15.7,0.1-31.3-0.1-47c0-3.2,0.7-4.3,4.1-4.3c3.6,0,4,1.4,4,4.4c-0.1,13,0,26-0.1,39
		c0,3,0.6,4,3.8,4c19-0.2,38-0.2,57,0c3.7,0,4.3-1.2,4.3-4.6c-0.2-12.8,0-25.7-0.1-38.5c0-2.5-0.2-4.4,3.5-4.3
		c3.4,0.1,4.1,1.2,4.1,4.3c-0.1,31.2-0.1,62.3,0,93.5c0,3.1-0.6,4.2-4,4.3c-3.5,0-3.6-1.5-3.6-4.2c0.1-13.2-0.1-26.3,0.1-39.5
		c0.1-3.6-1.3-4-4.3-4c-19,0.1-38,0.1-57,0c-3.1,0-3.9,0.8-3.8,3.9c0.2,13.2,0,26.3,0.1,39.5c0,3.1-0.6,4.3-4.1,4.3
		c-3.4,0-4-1.2-4-4.3C469.2,324.5,469.1,309,469.1,293.5z"/>
	<path class="st2" d="M701.3,240.9c9.9,0,20.2,3.2,29.3,10c1.7,1.2,4,2.3,1.2,4.8c-1.8,1.6-2.4,4.5-6,1.6
		c-10.7-8.8-23.2-11.2-36.6-8.1c-11.2,2.5-17.4,12.1-15.2,22.6c1.5,6.8,6.4,10.2,12.2,12.7c6.3,2.8,13,4,19.6,5.5
		c4.7,1.1,9.3,2.4,13.8,4.2c11,4.4,17.1,12.6,17.3,23.3c0.1,10.6-6.9,21.3-17.5,25c-20.8,7.4-39.2,2-55.8-11.5
		c-2.7-2.2-0.6-3.4,0.6-4.7c1.2-1.2,1.8-3.8,4.5-1.3c8.2,7.8,18.1,12.2,29.4,13.4c8.4,0.9,16.2-0.4,23.3-5.4
		c9.9-6.9,10.8-24.2-1.8-30.3c-8.7-4.2-18.1-5.5-27.2-8c-4.8-1.3-9.4-3.1-13.9-5.3c-17.4-8.6-16.8-34,0.3-43.7
		C685.5,242.1,692.5,240.7,701.3,240.9z"/>
	<path class="st2" d="M619,124.1c-10.5-19.8-28.7-28.4-50-31c-19.2-2.4-38.6-0.5-57.9-1.1c-3.6-0.1-4.3,1.1-4.3,4.4
		c0.2,19.5,0.1,39,0.1,58.5c0,19.7,0.1,39.3-0.1,59c0,3.3,0.9,4.2,4.2,4.1c14.7-0.2,29.3,0,44-0.1c9.2,0,18.2-1.1,27.1-3.7
		C626.4,201,635.1,154.3,619,124.1z M589.6,163.2c-2.7,14.2-14.5,22.9-30.6,23.7c-4.7,0.2-9.3-0.1-14,0.2c-3,0.2-3.5-1-3.5-3.7
		c0.1-9.3,0.1-18.7,0.1-28c0-9.2,0.2-18.3-0.1-27.5c-0.2-4.2,1.3-5,5.1-4.8c6.8,0.3,13.7-0.6,20.4,1.3
		C587.3,130,593,145.4,589.6,163.2z"/>
	<path class="st2" d="M658.1,339.7c-14.5-31.3-29-62.7-43.5-94c-1.1-2.4-1.9-4.2-5.2-4.1c-3.1,0.1-4.7,0.9-6,3.8
		C592,270.3,580.4,295.1,569,320c-3.6,7.9-7.3,15.8-10.9,23.6c6.2,2.2,8.9-0.6,10.8-5.7c2.5-6.5,5.7-12.7,8.5-19.1
		c0.9-2.2,2.2-2.8,4.5-2.8c18,0.1,36,0.1,54,0c2.4,0,3.4,0.9,4.3,3c2.8,6.4,6.3,12.5,8.5,19.1c2,5.8,5.3,7.4,10.8,5.8
		C659.7,342.2,658.7,341,658.1,339.7z M582.1,308.6c8.9-19.5,17.6-38.6,26.7-58.4c9,19.7,17.7,38.9,26.5,58.4
		C617.2,308.6,599.9,308.6,582.1,308.6z"/>
	<g>
		<path class="st2" d="M430.8,243c-13.8-1.6-27.6-0.3-41.4-0.7c-3.6-0.1-4.4,1-4.4,4.5c0.2,15.5,0.1,31,0.1,46.5
			c0,15.8,0.1,31.6-0.1,47.5c0,2.9,0.9,3.6,3.7,3.6c2.7,0,4.2-0.3,4.1-3.7c-0.2-9.7,0.2-19.3-0.2-29c-0.2-4.6,1.3-5.6,5.6-5.4
			c7,0.4,14,0,21,0.1c5.9,0.1,11.6-0.8,17.2-2.3c20.2-5.5,30-27.7,19.8-45.5C450.6,248.7,441.4,244.2,430.8,243z M433.1,297.6
			c-4.5,1.2-9.2,1.6-13.8,1.5c-7.7-0.1-15.3-0.2-23,0c-2.9,0.1-3.7-0.8-3.6-3.6c0.2-7.2,0.1-14.3,0.1-21.5c0-7,0.1-14,0-21
			c0-2.6,0.4-3.9,3.5-3.9c9.5,0.2,19-0.3,28.5,0.2c9.9,0.5,19.2,3.2,24.6,12.6C457.3,276.2,449.4,293.4,433.1,297.6z"/>
		<path class="st2" d="M489.8,113.2c-21.1-24.9-60.5-31-88.6-14.1c-24.3,14.6-34.7,40.2-31.6,63.2c4.8,35.4,31.5,57.9,68.3,57.9
			c9.3,0.4,19.1-1.9,28.5-6.1C505.7,196.9,517.6,145.8,489.8,113.2z M437.1,188.9c-18.2-0.1-32-14.9-32-34.3
			c0-18.9,13.8-33.5,31.7-33.5c18-0.1,32.3,15.2,32.3,34.2C469.1,174.5,455.3,189,437.1,188.9z"/>
	</g>
</g>
</svg>
