<?xml version="1.0" encoding="utf-8"?>
<!-- Generator: Adobe Illustrator 22.0.0, SVG Export Plug-In . SVG Version: 6.00 Build 0)  -->
<svg version="1.1" id="Layer_1" xmlns="http://www.w3.org/2000/svg" xmlns:xlink="http://www.w3.org/1999/xlink" x="0px" y="0px"
	 viewBox="0 0 89.7 59.8" style="enable-background:new 0 0 89.7 59.8;" xml:space="preserve">
<style type="text/css">
	.st0{fill:#A1CD53;}
	.st1{fill:#8A4A9C;}
	.st2{fill:#5FBA49;}
	.st3{fill:#603292;}
	.st4{fill:#010101;}
</style>
<g>
	<path class="st0" d="M3.8,20.2C3.9,20.1,4,20,4.1,19.9C9.8,14.1,15.6,8.4,21.3,2.6c1.9-1.9,4.8-1.6,6.2,0.7
		c0.8,1.4,0.7,3.2-0.4,4.4c-1.3,1.4-2.6,2.7-4,4c-3.1,3.1-6.2,6.2-9.4,9.3c-0.6,0.6-1.3,1.2-1.9,1.9c-0.4,0.4-0.4,0.4,0,0.9
		c5,5,10,10,15,14.9c0.7,0.7,1.1,1.4,1.2,2.4c0.2,2-1.3,3.9-3.2,4.2c-1.3,0.2-2.4-0.2-3.4-1.1C15.6,38.6,9.9,32.8,4.2,27.1
		C4.1,27,4,26.9,3.9,26.7c0.2-0.1,0.4,0,0.5,0.1c1.2,0.6,3.2,0.4,4.2-0.7c0.7-0.8,1.5-1.6,2.3-2.3c0.3-0.2,0.3-0.4,0-0.7
		c-0.8-0.8-1.6-1.6-2.4-2.4c-1.1-1.1-2.9-1.3-4.2-0.6C4.2,20.1,4,20.3,3.8,20.2z"/>
	<path class="st1" d="M34,40.3c-4.2-4.2-8.5-8.5-12.7-12.7c-1.2-1.2-1.2-3.2,0-4.4c1.3-1.3,3.2-1.4,4.4-0.1
		c4.8,4.8,9.7,9.7,14.5,14.5c0,0,0,0.1,0,0.1c-0.2,0.1-0.3,0-0.5-0.1c-1.4-0.5-2.6-0.4-3.6,0.8c-0.5,0.6-1.1,1.1-1.7,1.7
		C34.3,40.1,34.2,40.3,34,40.3z"/>
	<path class="st1" d="M40.2,43c-0.1,0.1-0.2,0.2-0.2,0.3c-4.7,4.7-9.4,9.4-14.1,14.1c-1.6,1.6-4.1,1.2-5.2-0.8
		c-0.6-1.2-0.4-2.6,0.6-3.6c2.6-2.6,5.1-5.1,7.7-7.7c1.5-1.5,3-3,4.5-4.5c0.1-0.1,0.3-0.3,0.5-0.4c0.2-0.1,0.3,0.1,0.5,0.2
		c0.6,0.5,1.1,1.1,1.6,1.6c1.1,1.1,2.3,1.5,3.7,0.8C39.9,43,40,42.9,40.2,43z"/>
	<path d="M67.7,14.6c0,2.1,0,4.1,0,6c0,0.4-0.1,0.5-0.5,0.5c-0.8,0-1.6,0-2.4,0c-0.3,0-0.4-0.1-0.4-0.4c0-3.7,0-7.5,0-11.2
		c0-0.3,0.1-0.4,0.4-0.4c0.8,0,1.6,0,2.3,0c0.3,0,0.5,0.1,0.7,0.3c1.4,1.9,2.9,3.7,4.3,5.6c0.1,0.1,0.1,0.2,0.3,0.3
		c0.1-0.2,0-0.3,0-0.5c0-1.8,0-3.5,0-5.3c0-0.3,0-0.4,0.4-0.4c0.9,0,1.7,0,2.6,0c0.2,0,0.3,0,0.3,0.3c0,3.8,0,7.6,0,11.4
		c0,0.3-0.1,0.3-0.3,0.3c-0.8,0-1.6,0-2.3,0c-0.2,0-0.4-0.1-0.5-0.3c-1.5-2-3-3.9-4.6-5.9C67.9,14.9,67.8,14.8,67.7,14.6z"/>
	<path d="M84.8,14.1c0.8,0,1.6,0,2.4,0c0.3,0,0.4,0.1,0.4,0.3c0,1.6,0,3.2,0,4.8c0,0.2-0.1,0.4-0.2,0.5c-2.3,1.9-6,2.2-8.5,0.7
		c-2-1.2-3-3-3-5.4c0-3.4,2.6-6,5.9-6.1c1.9-0.1,3.6,0.3,5,1.5c0.2,0.2,0.3,0.3,0.1,0.6c-0.5,0.6-1,1.1-1.4,1.7
		c-0.2,0.3-0.3,0.3-0.6,0.1c-1-0.8-2.1-1.1-3.3-0.8c-0.9,0.2-1.6,0.9-2,1.7c-0.6,1.2-0.3,2.9,0.6,3.8c1,1,2.7,1.2,3.9,0.6
		c0.2-0.1,0.3-0.3,0.3-0.5c0-1.1,0-1.1-1.1-1.1c-0.4,0-1,0.2-1.2-0.1s-0.1-0.8-0.1-1.2c0-1.1,0-1.1,1.1-1.1
		C83.8,14.1,84.3,14.1,84.8,14.1z"/>
	<path d="M30.9,21.3c-2.9,0.1-5.4-2-6-4.8c-0.7-3.3,1-6.4,4.2-7.3c2.4-0.7,5.1-0.2,6.8,1.9c0.2,0.3,0.2,0.4-0.1,0.6
		c-0.7,0.5-1.3,1-2,1.5c-0.2,0.2-0.3,0.2-0.5-0.1c-0.8-1-1.8-1.4-3.1-1.1c-1.3,0.3-2.2,1.6-2.1,3.2c0,1.2,0.5,2.2,1.6,2.8
		c1.1,0.6,2.4,0.3,3.4-0.6c0.6-0.6,0.6-0.6,1.3-0.1c0.5,0.4,1,0.8,1.6,1.1c0.2,0.2,0.2,0.2,0.1,0.5C34.8,20.6,33.1,21.4,30.9,21.3z"
		/>
	<path class="st2" d="M3.8,20.2c0.7-0.4,1.5-0.6,2.3-0.6c1,0,1.8,0.4,2.5,1c0.9,0.8,1.7,1.7,2.5,2.5c0.2,0.2,0.2,0.4,0,0.6
		c-0.9,0.9-1.8,1.7-2.6,2.6c-1,1-2.7,1.3-4,0.7c-0.2-0.1-0.4-0.2-0.6-0.3c-0.8-0.6-1.4-1.4-1.7-2.4c-0.3-1.3,0-2.4,0.9-3.4
		C3.3,20.6,3.6,20.4,3.8,20.2z"/>
	<path d="M60.4,15.1c0-1.9,0-3.7,0-5.6c0-0.3,0.1-0.4,0.4-0.4c0.9,0,1.8,0,2.7,0c0.3,0,0.3,0.1,0.3,0.4c0,3.8,0,7.5,0,11.3
		c0,0.3-0.1,0.4-0.4,0.4c-0.9,0-1.7,0-2.6,0c-0.3,0-0.4-0.1-0.4-0.4C60.4,18.8,60.4,16.9,60.4,15.1z"/>
	<path class="st3" d="M40.2,43c-0.3,0.1-0.7,0.3-1,0.4c-1.2,0.3-2.2-0.1-3-0.9c-0.7-0.7-1.4-1.5-2.2-2.1c0,0,0-0.1,0-0.1
		c0.8-0.7,1.6-1.5,2.3-2.2c1-1.1,2.6-1.2,3.8-0.5c0.1,0,0.1,0.1,0.2,0.1C42.1,39,42.2,41.5,40.2,43z"/>
	<path d="M71.8,28.3c0-1.5,0-3,0-4.4c0-0.3,0.1-0.5,0.4-0.5c2,0,4.1,0,6.1,0c0.2,0,0.4,0,0.4,0.4c0,0.4-0.2,0.3-0.4,0.3
		c-1.8,0-3.6,0-5.3,0c-0.4,0-0.5,0.1-0.4,0.4c0,1,0,2,0,3c0,0.3,0.1,0.4,0.4,0.4c1.6,0,3.1,0,4.7,0c0.3,0,0.4,0,0.4,0.4
		c0,0.4-0.2,0.3-0.5,0.3c-1.6,0-3.1,0-4.7,0c-0.3,0-0.4,0.1-0.4,0.4c0,1,0,2.1,0,3.1c0,0.3,0.1,0.4,0.4,0.4c1.8,0,3.6,0,5.4,0
		c0.2,0,0.4,0,0.4,0.3c0,0.4-0.2,0.3-0.4,0.3c-2,0-4.1,0-6.1,0c-0.4,0-0.5-0.1-0.5-0.5C71.8,31.2,71.8,29.8,71.8,28.3z"/>
	<path class="st4" d="M45.2,28.3c0-1.5,0-3,0-4.5c0-0.3,0.1-0.4,0.4-0.4c0.3,0,0.4,0.1,0.4,0.4c0,1.2,0,2.5,0,3.7
		c0,0.3,0.1,0.4,0.4,0.4c1.8,0,3.6,0,5.4,0c0.4,0,0.4-0.1,0.4-0.4c0-1.2,0-2.4,0-3.7c0-0.2,0-0.4,0.3-0.4c0.3,0,0.4,0.1,0.4,0.4
		c0,3,0,5.9,0,8.9c0,0.3-0.1,0.4-0.4,0.4c-0.3,0-0.3-0.1-0.3-0.4c0-1.3,0-2.5,0-3.8c0-0.3-0.1-0.4-0.4-0.4c-1.8,0-3.6,0-5.4,0
		c-0.3,0-0.4,0.1-0.4,0.4c0,1.3,0,2.5,0,3.8c0,0.3-0.1,0.4-0.4,0.4c-0.3,0-0.4-0.1-0.4-0.4C45.2,31.3,45.2,29.8,45.2,28.3z"/>
	<path d="M67.3,23.3c0.9,0,1.9,0.3,2.8,1c0.2,0.1,0.4,0.2,0.1,0.5c-0.2,0.2-0.2,0.4-0.6,0.2c-1-0.8-2.2-1.1-3.5-0.8
		c-1.1,0.2-1.7,1.2-1.4,2.2c0.1,0.6,0.6,1,1.2,1.2c0.6,0.3,1.2,0.4,1.9,0.5c0.4,0.1,0.9,0.2,1.3,0.4c1,0.4,1.6,1.2,1.6,2.2
		c0,1-0.7,2-1.7,2.4c-2,0.7-3.7,0.2-5.3-1.1c-0.3-0.2-0.1-0.3,0.1-0.4c0.1-0.1,0.2-0.4,0.4-0.1c0.8,0.7,1.7,1.2,2.8,1.3
		c0.8,0.1,1.5,0,2.2-0.5c0.9-0.7,1-2.3-0.2-2.9c-0.8-0.4-1.7-0.5-2.6-0.8c-0.5-0.1-0.9-0.3-1.3-0.5c-1.7-0.8-1.6-3.2,0-4.2
		C65.8,23.4,66.5,23.3,67.3,23.3z"/>
	<path d="M59.5,12.2c-1-1.9-2.7-2.7-4.8-3c-1.8-0.2-3.7,0-5.5-0.1c-0.3,0-0.4,0.1-0.4,0.4c0,1.9,0,3.7,0,5.6c0,1.9,0,3.7,0,5.6
		c0,0.3,0.1,0.4,0.4,0.4c1.4,0,2.8,0,4.2,0c0.9,0,1.7-0.1,2.6-0.4C60.2,19.5,61,15,59.5,12.2z M56.7,15.9c-0.3,1.4-1.4,2.2-2.9,2.3
		c-0.4,0-0.9,0-1.3,0c-0.3,0-0.3-0.1-0.3-0.4c0-0.9,0-1.8,0-2.7c0-0.9,0-1.7,0-2.6c0-0.4,0.1-0.5,0.5-0.5c0.6,0,1.3-0.1,1.9,0.1
		C56.5,12.7,57,14.2,56.7,15.9z"/>
	<path d="M63.2,32.7c-1.4-3-2.8-6-4.1-9c-0.1-0.2-0.2-0.4-0.5-0.4c-0.3,0-0.4,0.1-0.6,0.4c-1.1,2.4-2.2,4.7-3.3,7.1
		c-0.3,0.8-0.7,1.5-1,2.2c0.6,0.2,0.8-0.1,1-0.5c0.2-0.6,0.5-1.2,0.8-1.8c0.1-0.2,0.2-0.3,0.4-0.3c1.7,0,3.4,0,5.1,0
		c0.2,0,0.3,0.1,0.4,0.3c0.3,0.6,0.6,1.2,0.8,1.8c0.2,0.6,0.5,0.7,1,0.6C63.4,32.9,63.3,32.8,63.2,32.7z M56,29.7
		c0.8-1.9,1.7-3.7,2.5-5.6c0.9,1.9,1.7,3.7,2.5,5.6C59.3,29.7,57.7,29.7,56,29.7z"/>
	<g>
		<path d="M41.6,23.5c-1.3-0.2-2.6,0-3.9-0.1c-0.3,0-0.4,0.1-0.4,0.4c0,1.5,0,3,0,4.4c0,1.5,0,3,0,4.5c0,0.3,0.1,0.3,0.4,0.3
			c0.3,0,0.4,0,0.4-0.4c0-0.9,0-1.8,0-2.8c0-0.4,0.1-0.5,0.5-0.5c0.7,0,1.3,0,2,0c0.6,0,1.1-0.1,1.6-0.2c1.9-0.5,2.9-2.6,1.9-4.3
			C43.4,24,42.6,23.6,41.6,23.5z M41.8,28.7c-0.4,0.1-0.9,0.2-1.3,0.1c-0.7,0-1.5,0-2.2,0c-0.3,0-0.4-0.1-0.3-0.3c0-0.7,0-1.4,0-2
			c0-0.7,0-1.3,0-2c0-0.2,0-0.4,0.3-0.4c0.9,0,1.8,0,2.7,0c0.9,0,1.8,0.3,2.3,1.2C44.1,26.7,43.3,28.3,41.8,28.7z"/>
		<path d="M47.2,11.1c-2-2.4-5.8-3-8.4-1.3c-2.3,1.4-3.3,3.8-3,6c0.5,3.4,3,5.5,6.5,5.5c0.9,0,1.8-0.2,2.7-0.6
			C48.7,19.1,49.8,14.2,47.2,11.1z M42.2,18.3c-1.7,0-3-1.4-3-3.3c0-1.8,1.3-3.2,3-3.2c1.7,0,3.1,1.4,3.1,3.3
			C45.2,17,43.9,18.4,42.2,18.3z"/>
	</g>
</g>
</svg>
