<?xml version="1.0" standalone="no"?>
<!DOCTYPE svg PUBLIC "-//W3C//DTD SVG 20010904//EN"
 "http://www.w3.org/TR/2001/REC-SVG-20010904/DTD/svg10.dtd">
<svg version="1.0" xmlns="http://www.w3.org/2000/svg"
 width="1244.000000pt" height="1244.000000pt" viewBox="0 0 1244.000000 1244.000000"
 preserveAspectRatio="xMidYMid meet">
<metadata>
Created by potrace 1.11, written by Peter Selinger 2001-2013
</metadata>
<g transform="translate(0.000000,1244.000000) scale(0.100000,-0.100000)"
fill="#000000" stroke="none">
<path d="M6610 12199 c0 -3 -10 -5 -22 -4 -24 2 -147 -29 -176 -44 -9 -5 -37
-19 -62 -30 -25 -12 -58 -30 -75 -41 -16 -11 -37 -23 -45 -27 -8 -4 -31 -21
-50 -37 -26 -24 -3714 -3711 -3748 -3749 -4 -4 -46 -46 -94 -92 -79 -78 -188
-221 -188 -248 0 -6 -7 -18 -15 -27 -8 -9 -16 -25 -18 -36 -1 -10 -5 -23 -9
-29 -5 -9 -9 -24 -24 -90 -13 -59 -16 -93 -15 -170 0 -49 3 -101 6 -115 3 -14
7 -37 9 -51 8 -52 55 -172 94 -237 39 -65 135 -179 197 -231 16 -14 48 -46 70
-70 58 -63 3693 -3699 3740 -3741 48 -43 160 -111 205 -125 3 -1 12 -4 20 -7
87 -33 168 -46 283 -46 102 1 157 9 252 39 22 7 43 12 48 11 4 -1 7 2 7 8 0 5
7 10 15 10 14 0 53 18 65 30 7 7 42 29 60 37 71 33 270 261 270 310 0 7 4 13
10 13 5 0 13 12 16 28 4 15 13 39 20 54 8 15 16 37 18 50 3 13 5 23 6 23 9 0
27 149 25 212 -4 133 -38 284 -74 327 -7 8 -13 21 -15 28 -1 7 -16 35 -34 61
-17 27 -32 50 -32 52 0 8 -73 82 -1673 1682 -889 890 -1620 1626 -1623 1636
-3 10 1 28 9 41 8 12 579 585 1267 1272 689 687 1260 1257 1269 1267 9 10 49
51 89 90 85 82 430 431 553 557 201 207 263 345 263 585 1 130 -3 164 -28 245
-27 90 -134 280 -157 280 -5 0 -9 4 -9 10 0 9 -76 87 -121 125 -65 53 -230
134 -306 151 -79 16 -273 26 -273 13z"/>
<path d="M6467 7834 c-68 -13 -152 -40 -173 -56 -6 -4 -14 -5 -17 -1 -4 3 -7
1 -7 -5 0 -7 -6 -12 -13 -12 -7 0 -23 -9 -35 -20 -12 -11 -26 -20 -32 -20 -15
0 -142 -129 -177 -180 -44 -66 -84 -157 -100 -230 -3 -14 -7 -74 -8 -134 -4
-133 8 -183 73 -311 14 -27 32 -56 39 -63 7 -7 13 -17 13 -22 0 -5 614 -624
1365 -1375 892 -892 1363 -1370 1358 -1378 -4 -7 -43 -46 -88 -89 -185 -176
-2635 -2631 -2635 -2640 0 -5 -6 -16 -12 -23 -32 -35 -38 -45 -38 -60 0 -8 -4
-15 -9 -15 -5 0 -11 -8 -14 -17 -3 -10 -13 -38 -22 -63 -57 -154 -48 -331 23
-478 105 -217 274 -351 497 -397 34 -7 153 -8 205 -2 47 5 152 36 168 49 6 6
12 8 12 4 0 -7 126 73 160 101 70 58 3249 3245 3255 3262 3 12 10 21 15 21 4
0 11 11 14 25 4 14 11 25 16 25 6 0 10 4 10 9 0 5 5 22 12 38 14 34 14 34 33
103 30 103 26 249 -9 360 -14 45 -78 170 -87 170 -5 0 -9 6 -9 13 0 14 -107
129 -154 165 -16 12 -26 22 -22 22 7 0 -2816 2822 -3021 3020 -108 105 -178
152 -275 184 -96 32 -208 39 -311 20z"/>
</g>
</svg>
